<svg xmlns="http://www.w3.org/2000/svg" width="54.461" height="48.821" viewBox="1930 415.182 18.154 16.274"><g data-name="Multiple Layers (2)"><g data-name="Path 7"><path d="M1947.302 424.297h-16.803l-.238.253-.038.038v.016l-.023.015-.023.038c-.024.023-.039.062-.062.092l-.008.008-.015.023-.015.038a.25.25 0 0 0-.03.1l-.016.023-.016.07-.015.076v.153l.015.077.016.077.015.015c0 .039.015.07.03.108l.016.023.015.038h.008c.015.03.038.061.062.1l.023.023.023.023v.015l.038.039 5.171 5.424a.79.79 0 0 0 1.159 0 .876.876 0 0 0 0-1.22l-3.76-3.959h14.47c.454 0 .83-.384.83-.86 0-.483-.376-.866-.83-.866Z" fill="#2dc44d" fill-rule="evenodd"/><path d="M1947.302 424.297h0-16.803l-.238.253-.038.038v.016l-.023.015-.023.038c-.024.023-.039.062-.062.092l-.008.008-.015.023-.015.038a.25.25 0 0 0-.03.1l-.016.023-.016.07-.015.076v.054h0v.046h0v.053l.015.077.016.077.015.015c0 .039.015.07.03.108l.016.023.015.038h.008c.015.03.038.061.062.1l.023.023.023.023v.015l.038.039 5.171 5.424a.79.79 0 0 0 1.159 0 .876.876 0 0 0 0-1.22l-3.76-3.959h14.47c.454 0 .83-.384.83-.86 0-.483-.376-.866-.83-.866h0Z" stroke-linejoin="round" stroke-linecap="round" stroke-width=".5" stroke="#fff" fill="transparent"/></g><g data-name="Path 8"><path d="M1930.852 422.34h16.803l.238-.253.038-.038v-.016l.023-.015.023-.038c.023-.023.038-.062.061-.092l.008-.008.015-.023.016-.039a.25.25 0 0 0 .03-.1l.016-.022.015-.07.016-.076v-.154l-.016-.076-.015-.077-.015-.015c0-.039-.016-.07-.031-.108l-.016-.023-.015-.038h-.008c-.015-.03-.038-.062-.06-.1l-.024-.023-.023-.023v-.015l-.038-.039-5.164-5.424a.79.79 0 0 0-1.159 0 .876.876 0 0 0 0 1.22l3.76 3.959h-14.478c-.453 0-.829.383-.829.86 0 .483.376.866.829.866Z" fill="#2dc44d" fill-rule="evenodd"/><path d="M1930.852 422.34h16.803l.238-.253.038-.038v-.016l.023-.015.023-.038c.023-.023.038-.062.061-.092l.008-.008.015-.023.016-.039a.25.25 0 0 0 .03-.1l.016-.022.015-.07.016-.076v-.054h0v-.046h0v-.054l-.016-.076-.015-.077-.015-.015c0-.039-.016-.07-.031-.108l-.016-.023-.015-.038h-.008c-.015-.03-.038-.062-.06-.1l-.024-.023-.023-.023v-.015l-.038-.039-5.164-5.424a.79.79 0 0 0-1.159 0 .876.876 0 0 0 0 1.22l3.76 3.959h-14.478c-.453 0-.829.383-.829.86 0 .483.376.866.829.866h0Z" stroke-linejoin="round" stroke-linecap="round" stroke-width=".5" stroke="#fff" fill="transparent"/></g></g></svg>