<svg xmlns="http://www.w3.org/2000/svg" width="104.181" height="120.627" viewBox="914.109 653.729 34.727 40.209"><g data-name="safe-icon"><path d="M932.555 654.527a34.148 34.148 0 0 0 7.662 3.75c2.003.698 4.127.984 6.244.842l2.196-.2.108 2.206c.403 8.113-.907 15.163-3.652 20.726-2.858 5.783-7.25 9.963-12.889 12.087h-1.466c-5.514-2.013-9.87-6.078-12.763-11.936-2.697-5.501-4.085-12.603-3.862-21.073l.055-2.177 2.167.112c2.355.152 4.719-.09 6.994-.717a19.77 19.77 0 0 0 6.771-3.505l1.175-.913 1.26.798Z" fill="#333" fill-rule="evenodd" data-name="Path 42"/><path d="M931.42 656.317c5.687 3.6 10.822 5.309 15.234 4.91.77 15.575-4.981 26.895-15.176 30.73-9.84-3.593-15.663-14.517-15.231-30.97 5.174.269 10.253-.847 15.172-4.67Z" fill="#fff" fill-rule="evenodd" data-name="Path 43"/><path d="M931.43 659.067c4.735 3 9.012 4.421 12.684 4.087.655 12.97-4.15 22.854-12.636 26.051-8.205-2.99-13.048-12.547-12.688-26.247 4.31.226 8.542-.707 12.64-3.891Z" fill="#3aaf3c" fill-rule="evenodd" data-name="Path 44"/><path d="M926.261 670.004h.94v-.654a4.493 4.493 0 0 1 1.25-3.123 4.156 4.156 0 0 1 6.061 0 4.507 4.507 0 0 1 1.25 3.123v.654h.93a.7.7 0 0 1 .7.697v8.807a.7.7 0 0 1-.7.697h-10.43a.697.697 0 0 1-.698-.697v-8.807c0-.385.312-.697.697-.697Zm3.807 4.962c.176.147.34.307.494.477.467-.747.984-1.462 1.548-2.14 1.532-1.852.838-1.496 2.965-1.496l-.298.328a21.186 21.186 0 0 0-1.963 2.618 30.91 30.91 0 0 0-2.013 3.318l-.183.357-.17-.363a8.817 8.817 0 0 0-1.133-1.833 6.114 6.114 0 0 0-1.44-1.309c.278-.91 1.597-.445 2.186.056Zm-1.558-4.962h5.92v-.654a3.184 3.184 0 0 0-.877-2.203 2.844 2.844 0 0 0-4.163 0 3.184 3.184 0 0 0-.88 2.206v.654Z" fill="#fff" fill-rule="evenodd" data-name="Path 45"/></g></svg>