<svg xmlns="http://www.w3.org/2000/svg" width="66" height="66" viewBox="901 92 22 22"><path d="M918.417 95.667h-1.01a4.592 4.592 0 0 0-4.49-3.667h-1.834a4.591 4.591 0 0 0-4.49 3.667h-1.01A4.589 4.589 0 0 0 901 100.25v9.167a4.589 4.589 0 0 0 4.583 4.583h.917v-13.75a.916.916 0 1 1 1.833 0V114h7.334v-13.75a.916.916 0 1 1 1.833 0V114h.917a4.589 4.589 0 0 0 4.583-4.583v-9.167a4.589 4.589 0 0 0-4.583-4.583Zm-9.926 0a2.754 2.754 0 0 1 2.592-1.834h1.834c1.195 0 2.213.767 2.592 1.834h-7.018Z" fill="#b0b0b0" fill-rule="evenodd" data-name="suitcase-alt (1)"/></svg>