<svg xmlns="http://www.w3.org/2000/svg" width="98.572" height="119.348" viewBox="552.945 653.729 32.857 39.783"><g data-name="timer-icon"><path d="M571.344 660.767c3.749.447 7.11 2.16 9.648 4.694a16.379 16.379 0 0 1 4.81 11.617c0 4.535-1.838 8.644-4.81 11.619a16.37 16.37 0 0 1-11.62 4.814 16.368 16.368 0 0 1-11.616-4.814 16.379 16.379 0 0 1-4.81-11.616c0-4.536 1.838-8.644 4.81-11.616a16.385 16.385 0 0 1 10.483-4.776v-2.755c0-.042.003-.084.007-.123h-3.08a.92.92 0 0 1-.915-.916v-2.25c0-.502.414-.916.919-.916h9.25c.505 0 .919.414.919.916v2.247a.92.92 0 0 1-.92.916h-3.078c.003.042.006.08.006.123v2.836h-.003Zm-.65 13.86a2.788 2.788 0 1 1-2.642 0v-6.385a1.32 1.32 0 1 1 2.638 0l.003 6.385Zm13.438-8.897c.638-1.521.563-3.118-.35-4.183-1.094-1.282-3.075-1.427-4.91-.527 1.942 1.337 3.71 2.89 5.26 4.71Zm-29.513 0c-.638-1.521-.563-3.118.35-4.183 1.094-1.282 3.075-1.427 4.914-.527-1.949 1.337-3.717 2.89-5.264 4.71Zm24.508 1.6a13.749 13.749 0 0 0-9.752-4.04 13.749 13.749 0 0 0-9.75 4.04 13.749 13.749 0 0 0-4.041 9.75c0 3.808 1.544 7.26 4.04 9.752a13.762 13.762 0 0 0 9.751 4.04c3.811 0 7.259-1.544 9.752-4.04a13.764 13.764 0 0 0 4.04-9.754c0-3.804-1.544-7.252-4.04-9.749Z" fill="#2dc44d" fill-rule="evenodd" data-name="Path 3"/></g></svg>